<svg xmlns="http://www.w3.org/2000/svg" viewBox="0 0 1280 360" role="img" aria-labelledby="title">
  <title id="title">TravelDrip black logo</title>
  <g transform="translate(34 30)">
    <circle cx="150" cy="150" r="132" fill="none" stroke="#000000" stroke-width="20"/>
    <path d="M62 150h176M150 54c31 30 46 62 46 96s-15 66-46 96M150 54c-31 30-46 62-46 96s15 66 46 96M82 103c42 17 94 17 136 0M82 197c42-17 94-17 136 0" fill="none" stroke="#000000" stroke-width="11" stroke-linecap="round"/>
    <path d="M235 25l71-28c13-5 25 9 17 20l-40 66 40 33c9 8 4 23-8 23l-65-1-49 64c-8 10-24 4-23-9l7-80-68-44c-11-7-7-24 7-25l78-6 33-13z" fill="#000000"/>
    <path d="M196 241c0 26-21 47-47 47s-47-21-47-47c0-33 47-75 47-75s47 42 47 75z" fill="#000000"/>
  </g>
  <text x="380" y="203" fill="#000000" font-family="Inter, Avenir Next, Arial Rounded MT Bold, Arial, sans-serif" font-size="116" font-weight="900" letter-spacing="-2">TravelDrip</text>
</svg>
